solid OpenSCAD_Model
  facet normal -1 0 0
    outer loop
      vertex 352.539 0 0
      vertex 352.539 40 2
      vertex 352.539 40 0
    endloop
  endfacet
  facet normal -1 -0 0
    outer loop
      vertex 352.539 40 2
      vertex 352.539 0 0
      vertex 352.539 0 2
    endloop
  endfacet
  facet normal 0 0 -1
    outer loop
      vertex 351.539 0 2
      vertex 352.539 40 2
      vertex 352.539 0 2
    endloop
  endfacet
  facet normal -0 0 -1
    outer loop
      vertex 352.539 40 2
      vertex 351.539 0 2
      vertex 351.539 40 2
    endloop
  endfacet
  facet normal 1 -0 0
    outer loop
      vertex 351.539 0 2
      vertex 351.539 40 0
      vertex 351.539 40 2
    endloop
  endfacet
  facet normal 1 0 0
    outer loop
      vertex 351.539 40 0
      vertex 351.539 0 2
      vertex 351.539 0 0
    endloop
  endfacet
  facet normal -1 0 0
    outer loop
      vertex 328.319 0 0
      vertex 328.319 40 2
      vertex 328.319 40 0
    endloop
  endfacet
  facet normal -1 -0 0
    outer loop
      vertex 328.319 40 2
      vertex 328.319 0 0
      vertex 328.319 0 2
    endloop
  endfacet
  facet normal 0 0 -1
    outer loop
      vertex 327.319 0 2
      vertex 328.319 40 2
      vertex 328.319 0 2
    endloop
  endfacet
  facet normal -0 0 -1
    outer loop
      vertex 328.319 40 2
      vertex 327.319 0 2
      vertex 327.319 40 2
    endloop
  endfacet
  facet normal 1 -0 0
    outer loop
      vertex 327.319 0 2
      vertex 327.319 40 0
      vertex 327.319 40 2
    endloop
  endfacet
  facet normal 1 0 0
    outer loop
      vertex 327.319 40 0
      vertex 327.319 0 2
      vertex 327.319 0 0
    endloop
  endfacet
  facet normal -1 0 0
    outer loop
      vertex 305.458 0 0
      vertex 305.458 40 2
      vertex 305.458 40 0
    endloop
  endfacet
  facet normal -1 -0 0
    outer loop
      vertex 305.458 40 2
      vertex 305.458 0 0
      vertex 305.458 0 2
    endloop
  endfacet
  facet normal 0 0 -1
    outer loop
      vertex 304.458 0 2
      vertex 305.458 40 2
      vertex 305.458 0 2
    endloop
  endfacet
  facet normal -0 0 -1
    outer loop
      vertex 305.458 40 2
      vertex 304.458 0 2
      vertex 304.458 40 2
    endloop
  endfacet
  facet normal 1 -0 0
    outer loop
      vertex 304.458 0 2
      vertex 304.458 40 0
      vertex 304.458 40 2
    endloop
  endfacet
  facet normal 1 0 0
    outer loop
      vertex 304.458 40 0
      vertex 304.458 0 2
      vertex 304.458 0 0
    endloop
  endfacet
  facet normal -1 0 0
    outer loop
      vertex 283.88 0 0
      vertex 283.88 40 2
      vertex 283.88 40 0
    endloop
  endfacet
  facet normal -1 -0 0
    outer loop
      vertex 283.88 40 2
      vertex 283.88 0 0
      vertex 283.88 0 2
    endloop
  endfacet
  facet normal 0 0 -1
    outer loop
      vertex 282.88 0 2
      vertex 283.88 40 2
      vertex 283.88 0 2
    endloop
  endfacet
  facet normal -0 0 -1
    outer loop
      vertex 283.88 40 2
      vertex 282.88 0 2
      vertex 282.88 40 2
    endloop
  endfacet
  facet normal 1 -0 0
    outer loop
      vertex 282.88 0 2
      vertex 282.88 40 0
      vertex 282.88 40 2
    endloop
  endfacet
  facet normal 1 0 0
    outer loop
      vertex 282.88 40 0
      vertex 282.88 0 2
      vertex 282.88 0 0
    endloop
  endfacet
  facet normal -1 0 0
    outer loop
      vertex 263.513 0 0
      vertex 263.513 40 2
      vertex 263.513 40 0
    endloop
  endfacet
  facet normal -1 -0 0
    outer loop
      vertex 263.513 40 2
      vertex 263.513 0 0
      vertex 263.513 0 2
    endloop
  endfacet
  facet normal 0 0 -1
    outer loop
      vertex 262.513 0 2
      vertex 263.513 40 2
      vertex 263.513 0 2
    endloop
  endfacet
  facet normal -0 0 -1
    outer loop
      vertex 263.513 40 2
      vertex 262.513 0 2
      vertex 262.513 40 2
    endloop
  endfacet
  facet normal 1 -0 0
    outer loop
      vertex 262.513 0 2
      vertex 262.513 40 0
      vertex 262.513 40 2
    endloop
  endfacet
  facet normal 1 0 0
    outer loop
      vertex 262.513 40 0
      vertex 262.513 0 2
      vertex 262.513 0 0
    endloop
  endfacet
  facet normal -1 0 0
    outer loop
      vertex 244.289 0 0
      vertex 244.289 40 2
      vertex 244.289 40 0
    endloop
  endfacet
  facet normal -1 -0 0
    outer loop
      vertex 244.289 40 2
      vertex 244.289 0 0
      vertex 244.289 0 2
    endloop
  endfacet
  facet normal 0 0 -1
    outer loop
      vertex 243.289 0 2
      vertex 244.289 40 2
      vertex 244.289 0 2
    endloop
  endfacet
  facet normal -0 0 -1
    outer loop
      vertex 244.289 40 2
      vertex 243.289 0 2
      vertex 243.289 40 2
    endloop
  endfacet
  facet normal 1 -0 0
    outer loop
      vertex 243.289 0 2
      vertex 243.289 40 0
      vertex 243.289 40 2
    endloop
  endfacet
  facet normal 1 0 0
    outer loop
      vertex 243.289 40 0
      vertex 243.289 0 2
      vertex 243.289 0 0
    endloop
  endfacet
  facet normal -1 0 0
    outer loop
      vertex 226.144 0 0
      vertex 226.144 40 2
      vertex 226.144 40 0
    endloop
  endfacet
  facet normal -1 -0 0
    outer loop
      vertex 226.144 40 2
      vertex 226.144 0 0
      vertex 226.144 0 2
    endloop
  endfacet
  facet normal 0 0 -1
    outer loop
      vertex 225.144 0 2
      vertex 226.144 40 2
      vertex 226.144 0 2
    endloop
  endfacet
  facet normal -0 0 -1
    outer loop
      vertex 226.144 40 2
      vertex 225.144 0 2
      vertex 225.144 40 2
    endloop
  endfacet
  facet normal 1 -0 0
    outer loop
      vertex 225.144 0 2
      vertex 225.144 40 0
      vertex 225.144 40 2
    endloop
  endfacet
  facet normal 1 0 0
    outer loop
      vertex 225.144 40 0
      vertex 225.144 0 2
      vertex 225.144 0 0
    endloop
  endfacet
  facet normal -1 0 0
    outer loop
      vertex 209.018 0 0
      vertex 209.018 40 2
      vertex 209.018 40 0
    endloop
  endfacet
  facet normal -1 -0 0
    outer loop
      vertex 209.018 40 2
      vertex 209.018 0 0
      vertex 209.018 0 2
    endloop
  endfacet
  facet normal 0 0 -1
    outer loop
      vertex 208.018 0 2
      vertex 209.018 40 2
      vertex 209.018 0 2
    endloop
  endfacet
  facet normal -0 0 -1
    outer loop
      vertex 209.018 40 2
      vertex 208.018 0 2
      vertex 208.018 40 2
    endloop
  endfacet
  facet normal 1 -0 0
    outer loop
      vertex 208.018 0 2
      vertex 208.018 40 0
      vertex 208.018 40 2
    endloop
  endfacet
  facet normal 1 0 0
    outer loop
      vertex 208.018 40 0
      vertex 208.018 0 2
      vertex 208.018 0 0
    endloop
  endfacet
  facet normal 0.38281 0.923827 -0
    outer loop
      vertex 315.888 17.5 0
      vertex 314.121 18.2322 2
      vertex 315.888 17.5 2
    endloop
  endfacet
  facet normal 0.38281 0.923827 0
    outer loop
      vertex 314.121 18.2322 2
      vertex 315.888 17.5 0
      vertex 314.121 18.2322 0
    endloop
  endfacet
  facet normal -0.382626 -0.923903 0
    outer loop
      vertex 315.888 22.5 0
      vertex 317.656 21.7678 2
      vertex 315.888 22.5 2
    endloop
  endfacet
  facet normal -0.382626 -0.923903 -0
    outer loop
      vertex 317.656 21.7678 2
      vertex 315.888 22.5 0
      vertex 317.656 21.7678 0
    endloop
  endfacet
  facet normal -0.923925 -0.382573 0
    outer loop
      vertex 318.388 20 0
      vertex 317.656 21.7678 2
      vertex 317.656 21.7678 0
    endloop
  endfacet
  facet normal -0.923925 -0.382573 0
    outer loop
      vertex 317.656 21.7678 2
      vertex 318.388 20 0
      vertex 318.388 20 2
    endloop
  endfacet
  facet normal 0.38281 -0.923827 0
    outer loop
      vertex 314.121 21.7678 0
      vertex 315.888 22.5 2
      vertex 314.121 21.7678 2
    endloop
  endfacet
  facet normal 0.38281 -0.923827 0
    outer loop
      vertex 315.888 22.5 2
      vertex 314.121 21.7678 0
      vertex 315.888 22.5 0
    endloop
  endfacet
  facet normal -0.382626 0.923903 0
    outer loop
      vertex 317.656 18.2322 0
      vertex 315.888 17.5 2
      vertex 317.656 18.2322 2
    endloop
  endfacet
  facet normal -0.382626 0.923903 0
    outer loop
      vertex 315.888 17.5 2
      vertex 317.656 18.2322 0
      vertex 315.888 17.5 0
    endloop
  endfacet
  facet normal -0.923925 0.382573 0
    outer loop
      vertex 317.656 18.2322 0
      vertex 318.388 20 2
      vertex 318.388 20 0
    endloop
  endfacet
  facet normal -0.923925 0.382573 0
    outer loop
      vertex 318.388 20 2
      vertex 317.656 18.2322 0
      vertex 317.656 18.2322 2
    endloop
  endfacet
  facet normal 0.92374 0.383019 0
    outer loop
      vertex 314.121 18.2322 2
      vertex 313.388 20 0
      vertex 313.388 20 2
    endloop
  endfacet
  facet normal 0.92374 0.383019 0
    outer loop
      vertex 313.388 20 0
      vertex 314.121 18.2322 2
      vertex 314.121 18.2322 0
    endloop
  endfacet
  facet normal 0.92374 -0.383019 0
    outer loop
      vertex 313.388 20 2
      vertex 314.121 21.7678 0
      vertex 314.121 21.7678 2
    endloop
  endfacet
  facet normal 0.92374 -0.383019 0
    outer loop
      vertex 314.121 21.7678 0
      vertex 313.388 20 2
      vertex 313.388 20 0
    endloop
  endfacet
  facet normal 0 0 -1
    outer loop
      vertex 317.656 18.2322 2
      vertex 317.656 21.7678 2
      vertex 318.388 20 2
    endloop
  endfacet
  facet normal 0 0 -1
    outer loop
      vertex 315.888 17.5 2
      vertex 317.656 21.7678 2
      vertex 317.656 18.2322 2
    endloop
  endfacet
  facet normal 0 0 -1
    outer loop
      vertex 315.888 17.5 2
      vertex 315.888 22.5 2
      vertex 317.656 21.7678 2
    endloop
  endfacet
  facet normal 0 0 -1
    outer loop
      vertex 314.121 18.2322 2
      vertex 315.888 22.5 2
      vertex 315.888 17.5 2
    endloop
  endfacet
  facet normal 0 0 -1
    outer loop
      vertex 314.121 18.2322 2
      vertex 314.121 21.7678 2
      vertex 315.888 22.5 2
    endloop
  endfacet
  facet normal 0 -0 -1
    outer loop
      vertex 314.121 21.7678 2
      vertex 314.121 18.2322 2
      vertex 313.388 20 2
    endloop
  endfacet
  facet normal 0.308883 0 0.9511
    outer loop
      vertex 315.322 2 1.58855
      vertex 316.105 0 1.33426
      vertex 316.105 2 1.33426
    endloop
  endfacet
  facet normal 0.308883 0 0.9511
    outer loop
      vertex 316.105 0 1.33426
      vertex 315.322 2 1.58855
      vertex 315.322 0 1.58855
    endloop
  endfacet
  facet normal 0.308883 0 -0.9511
    outer loop
      vertex 315.322 0 2.41145
      vertex 316.105 2 2.66574
      vertex 316.105 0 2.66574
    endloop
  endfacet
  facet normal 0.308883 0 -0.9511
    outer loop
      vertex 316.105 2 2.66574
      vertex 315.322 0 2.41145
      vertex 315.322 2 2.41145
    endloop
  endfacet
  facet normal -0.809415 0 -0.587237
    outer loop
      vertex 316.588 0 2
      vertex 316.105 2 2.66574
      vertex 316.588 2 2
    endloop
  endfacet
  facet normal -0.809415 -0 -0.587237
    outer loop
      vertex 316.105 2 2.66574
      vertex 316.588 0 2
      vertex 316.105 0 2.66574
    endloop
  endfacet
  facet normal 1 -0 0
    outer loop
      vertex 315.322 0 2.41145
      vertex 315.322 2 1.58855
      vertex 315.322 2 2.41145
    endloop
  endfacet
  facet normal 1 0 0
    outer loop
      vertex 315.322 2 1.58855
      vertex 315.322 0 2.41145
      vertex 315.322 0 1.58855
    endloop
  endfacet
  facet normal 0 -1 0
    outer loop
      vertex 315.322 2 2.41145
      vertex 316.588 2 2
      vertex 316.105 2 2.66574
    endloop
  endfacet
  facet normal 0 -1 0
    outer loop
      vertex 315.322 2 1.58855
      vertex 316.588 2 2
      vertex 315.322 2 2.41145
    endloop
  endfacet
  facet normal 0 -1 0
    outer loop
      vertex 316.588 2 2
      vertex 315.322 2 1.58855
      vertex 316.105 2 1.33426
    endloop
  endfacet
  facet normal -0.809415 0 0.587237
    outer loop
      vertex 316.105 0 1.33426
      vertex 316.588 2 2
      vertex 316.105 2 1.33426
    endloop
  endfacet
  facet normal -0.809415 0 0.587237
    outer loop
      vertex 316.588 2 2
      vertex 316.105 0 1.33426
      vertex 316.588 0 2
    endloop
  endfacet
  facet normal -0.382626 -0.923903 0
    outer loop
      vertex 272.696 22.5 0
      vertex 274.464 21.7678 2
      vertex 272.696 22.5 2
    endloop
  endfacet
  facet normal -0.382626 -0.923903 -0
    outer loop
      vertex 274.464 21.7678 2
      vertex 272.696 22.5 0
      vertex 274.464 21.7678 0
    endloop
  endfacet
  facet normal -0.923925 -0.382573 0
    outer loop
      vertex 275.196 20 0
      vertex 274.464 21.7678 2
      vertex 274.464 21.7678 0
    endloop
  endfacet
  facet normal -0.923925 -0.382573 0
    outer loop
      vertex 274.464 21.7678 2
      vertex 275.196 20 0
      vertex 275.196 20 2
    endloop
  endfacet
  facet normal 0.38281 -0.923827 0
    outer loop
      vertex 270.929 21.7678 0
      vertex 272.696 22.5 2
      vertex 270.929 21.7678 2
    endloop
  endfacet
  facet normal 0.38281 -0.923827 0
    outer loop
      vertex 272.696 22.5 2
      vertex 270.929 21.7678 0
      vertex 272.696 22.5 0
    endloop
  endfacet
  facet normal -0.923925 0.382573 0
    outer loop
      vertex 274.464 18.2322 0
      vertex 275.196 20 2
      vertex 275.196 20 0
    endloop
  endfacet
  facet normal -0.923925 0.382573 0
    outer loop
      vertex 275.196 20 2
      vertex 274.464 18.2322 0
      vertex 274.464 18.2322 2
    endloop
  endfacet
  facet normal 0.92374 0.383019 0
    outer loop
      vertex 270.929 18.2322 2
      vertex 270.196 20 0
      vertex 270.196 20 2
    endloop
  endfacet
  facet normal 0.92374 0.383019 0
    outer loop
      vertex 270.196 20 0
      vertex 270.929 18.2322 2
      vertex 270.929 18.2322 0
    endloop
  endfacet
  facet normal 0.92374 -0.383019 0
    outer loop
      vertex 270.196 20 2
      vertex 270.929 21.7678 0
      vertex 270.929 21.7678 2
    endloop
  endfacet
  facet normal 0.92374 -0.383019 0
    outer loop
      vertex 270.929 21.7678 0
      vertex 270.196 20 2
      vertex 270.196 20 0
    endloop
  endfacet
  facet normal 0 0 -1
    outer loop
      vertex 274.464 18.2322 2
      vertex 274.464 21.7678 2
      vertex 275.196 20 2
    endloop
  endfacet
  facet normal 0 0 -1
    outer loop
      vertex 272.696 17.5 2
      vertex 274.464 21.7678 2
      vertex 274.464 18.2322 2
    endloop
  endfacet
  facet normal 0 0 -1
    outer loop
      vertex 272.696 17.5 2
      vertex 272.696 22.5 2
      vertex 274.464 21.7678 2
    endloop
  endfacet
  facet normal 0 0 -1
    outer loop
      vertex 270.929 18.2322 2
      vertex 272.696 22.5 2
      vertex 272.696 17.5 2
    endloop
  endfacet
  facet normal 0 0 -1
    outer loop
      vertex 270.929 18.2322 2
      vertex 270.929 21.7678 2
      vertex 272.696 22.5 2
    endloop
  endfacet
  facet normal 0 -0 -1
    outer loop
      vertex 270.929 21.7678 2
      vertex 270.929 18.2322 2
      vertex 270.196 20 2
    endloop
  endfacet
  facet normal -0.382626 0.923903 0
    outer loop
      vertex 274.464 18.2322 0
      vertex 272.696 17.5 2
      vertex 274.464 18.2322 2
    endloop
  endfacet
  facet normal -0.382626 0.923903 0
    outer loop
      vertex 272.696 17.5 2
      vertex 274.464 18.2322 0
      vertex 272.696 17.5 0
    endloop
  endfacet
  facet normal 0.38281 0.923827 -0
    outer loop
      vertex 272.696 17.5 0
      vertex 270.929 18.2322 2
      vertex 272.696 17.5 2
    endloop
  endfacet
  facet normal 0.38281 0.923827 0
    outer loop
      vertex 270.929 18.2322 2
      vertex 272.696 17.5 0
      vertex 270.929 18.2322 0
    endloop
  endfacet
  facet normal 0.308883 0 0.9511
    outer loop
      vertex 272.13 2 1.58855
      vertex 272.913 0 1.33426
      vertex 272.913 2 1.33426
    endloop
  endfacet
  facet normal 0.308883 0 0.9511
    outer loop
      vertex 272.913 0 1.33426
      vertex 272.13 2 1.58855
      vertex 272.13 0 1.58855
    endloop
  endfacet
  facet normal -0.809415 0 -0.587237
    outer loop
      vertex 273.396 0 2
      vertex 272.913 2 2.66574
      vertex 273.396 2 2
    endloop
  endfacet
  facet normal -0.809415 -0 -0.587237
    outer loop
      vertex 272.913 2 2.66574
      vertex 273.396 0 2
      vertex 272.913 0 2.66574
    endloop
  endfacet
  facet normal 1 -0 0
    outer loop
      vertex 272.13 0 2.41145
      vertex 272.13 2 1.58855
      vertex 272.13 2 2.41145
    endloop
  endfacet
  facet normal 1 0 0
    outer loop
      vertex 272.13 2 1.58855
      vertex 272.13 0 2.41145
      vertex 272.13 0 1.58855
    endloop
  endfacet
  facet normal 0.308883 0 -0.9511
    outer loop
      vertex 272.13 0 2.41145
      vertex 272.913 2 2.66574
      vertex 272.913 0 2.66574
    endloop
  endfacet
  facet normal 0.308883 0 -0.9511
    outer loop
      vertex 272.913 2 2.66574
      vertex 272.13 0 2.41145
      vertex 272.13 2 2.41145
    endloop
  endfacet
  facet normal 0 -1 0
    outer loop
      vertex 272.13 2 2.41145
      vertex 273.396 2 2
      vertex 272.913 2 2.66574
    endloop
  endfacet
  facet normal 0 -1 0
    outer loop
      vertex 272.13 2 1.58855
      vertex 273.396 2 2
      vertex 272.13 2 2.41145
    endloop
  endfacet
  facet normal 0 -1 0
    outer loop
      vertex 273.396 2 2
      vertex 272.13 2 1.58855
      vertex 272.913 2 1.33426
    endloop
  endfacet
  facet normal -0.809415 0 0.587237
    outer loop
      vertex 272.913 0 1.33426
      vertex 273.396 2 2
      vertex 272.913 2 1.33426
    endloop
  endfacet
  facet normal -0.809415 0 0.587237
    outer loop
      vertex 273.396 2 2
      vertex 272.913 0 1.33426
      vertex 273.396 0 2
    endloop
  endfacet
  facet normal -0.382626 -0.923903 0
    outer loop
      vertex 234.217 22.5 0
      vertex 235.985 21.7678 2
      vertex 234.217 22.5 2
    endloop
  endfacet
  facet normal -0.382626 -0.923903 -0
    outer loop
      vertex 235.985 21.7678 2
      vertex 234.217 22.5 0
      vertex 235.985 21.7678 0
    endloop
  endfacet
  facet normal -0.923925 -0.382573 0
    outer loop
      vertex 236.717 20 0
      vertex 235.985 21.7678 2
      vertex 235.985 21.7678 0
    endloop
  endfacet
  facet normal -0.923925 -0.382573 0
    outer loop
      vertex 235.985 21.7678 2
      vertex 236.717 20 0
      vertex 236.717 20 2
    endloop
  endfacet
  facet normal 0.382626 -0.923903 0
    outer loop
      vertex 232.449 21.7678 0
      vertex 234.217 22.5 2
      vertex 232.449 21.7678 2
    endloop
  endfacet
  facet normal 0.382626 -0.923903 0
    outer loop
      vertex 234.217 22.5 2
      vertex 232.449 21.7678 0
      vertex 234.217 22.5 0
    endloop
  endfacet
  facet normal -0.923925 0.382573 0
    outer loop
      vertex 235.985 18.2322 0
      vertex 236.717 20 2
      vertex 236.717 20 0
    endloop
  endfacet
  facet normal -0.923925 0.382573 0
    outer loop
      vertex 236.717 20 2
      vertex 235.985 18.2322 0
      vertex 235.985 18.2322 2
    endloop
  endfacet
  facet normal 0.923925 0.382573 0
    outer loop
      vertex 232.449 18.2322 2
      vertex 231.717 20 0
      vertex 231.717 20 2
    endloop
  endfacet
  facet normal 0.923925 0.382573 0
    outer loop
      vertex 231.717 20 0
      vertex 232.449 18.2322 2
      vertex 232.449 18.2322 0
    endloop
  endfacet
  facet normal 0.923925 -0.382573 0
    outer loop
      vertex 231.717 20 2
      vertex 232.449 21.7678 0
      vertex 232.449 21.7678 2
    endloop
  endfacet
  facet normal 0.923925 -0.382573 0
    outer loop
      vertex 232.449 21.7678 0
      vertex 231.717 20 2
      vertex 231.717 20 0
    endloop
  endfacet
  facet normal 0 0 -1
    outer loop
      vertex 235.985 18.2322 2
      vertex 235.985 21.7678 2
      vertex 236.717 20 2
    endloop
  endfacet
  facet normal 0 0 -1
    outer loop
      vertex 234.217 17.5 2
      vertex 235.985 21.7678 2
      vertex 235.985 18.2322 2
    endloop
  endfacet
  facet normal 0 0 -1
    outer loop
      vertex 234.217 17.5 2
      vertex 234.217 22.5 2
      vertex 235.985 21.7678 2
    endloop
  endfacet
  facet normal 0 0 -1
    outer loop
      vertex 232.449 18.2322 2
      vertex 234.217 22.5 2
      vertex 234.217 17.5 2
    endloop
  endfacet
  facet normal 0 0 -1
    outer loop
      vertex 232.449 18.2322 2
      vertex 232.449 21.7678 2
      vertex 234.217 22.5 2
    endloop
  endfacet
  facet normal 0 -0 -1
    outer loop
      vertex 232.449 21.7678 2
      vertex 232.449 18.2322 2
      vertex 231.717 20 2
    endloop
  endfacet
  facet normal -0.382626 0.923903 0
    outer loop
      vertex 235.985 18.2322 0
      vertex 234.217 17.5 2
      vertex 235.985 18.2322 2
    endloop
  endfacet
  facet normal -0.382626 0.923903 0
    outer loop
      vertex 234.217 17.5 2
      vertex 235.985 18.2322 0
      vertex 234.217 17.5 0
    endloop
  endfacet
  facet normal 0.382626 0.923903 -0
    outer loop
      vertex 234.217 17.5 0
      vertex 232.449 18.2322 2
      vertex 234.217 17.5 2
    endloop
  endfacet
  facet normal 0.382626 0.923903 0
    outer loop
      vertex 232.449 18.2322 2
      vertex 234.217 17.5 0
      vertex 232.449 18.2322 0
    endloop
  endfacet
  facet normal 0.308883 0 0.9511
    outer loop
      vertex 233.65 2 1.58855
      vertex 234.433 0 1.33426
      vertex 234.433 2 1.33426
    endloop
  endfacet
  facet normal 0.308883 0 0.9511
    outer loop
      vertex 234.433 0 1.33426
      vertex 233.65 2 1.58855
      vertex 233.65 0 1.58855
    endloop
  endfacet
  facet normal 0.308883 0 -0.9511
    outer loop
      vertex 233.65 0 2.41145
      vertex 234.433 2 2.66574
      vertex 234.433 0 2.66574
    endloop
  endfacet
  facet normal 0.308883 0 -0.9511
    outer loop
      vertex 234.433 2 2.66574
      vertex 233.65 0 2.41145
      vertex 233.65 2 2.41145
    endloop
  endfacet
  facet normal -0.808837 0 -0.588033
    outer loop
      vertex 234.917 0 2
      vertex 234.433 2 2.66574
      vertex 234.917 2 2
    endloop
  endfacet
  facet normal -0.808837 -0 -0.588033
    outer loop
      vertex 234.433 2 2.66574
      vertex 234.917 0 2
      vertex 234.433 0 2.66574
    endloop
  endfacet
  facet normal 1 -0 0
    outer loop
      vertex 233.65 0 2.41145
      vertex 233.65 2 1.58855
      vertex 233.65 2 2.41145
    endloop
  endfacet
  facet normal 1 0 0
    outer loop
      vertex 233.65 2 1.58855
      vertex 233.65 0 2.41145
      vertex 233.65 0 1.58855
    endloop
  endfacet
  facet normal 0 -1 0
    outer loop
      vertex 233.65 2 2.41145
      vertex 234.917 2 2
      vertex 234.433 2 2.66574
    endloop
  endfacet
  facet normal 0 -1 0
    outer loop
      vertex 233.65 2 1.58855
      vertex 234.917 2 2
      vertex 233.65 2 2.41145
    endloop
  endfacet
  facet normal 0 -1 0
    outer loop
      vertex 234.917 2 2
      vertex 233.65 2 1.58855
      vertex 234.433 2 1.33426
    endloop
  endfacet
  facet normal -0.808837 0 0.588033
    outer loop
      vertex 234.433 0 1.33426
      vertex 234.917 2 2
      vertex 234.433 2 1.33426
    endloop
  endfacet
  facet normal -0.808837 0 0.588033
    outer loop
      vertex 234.917 2 2
      vertex 234.433 0 1.33426
      vertex 234.917 0 2
    endloop
  endfacet
  facet normal 1 -0 0
    outer loop
      vertex 372.2 0 4
      vertex 372.2 40 0
      vertex 372.2 40 4
    endloop
  endfacet
  facet normal 1 0 0
    outer loop
      vertex 372.2 40 0
      vertex 372.2 0 4
      vertex 372.2 0 0
    endloop
  endfacet
  facet normal -0 0 1
    outer loop
      vertex 198.6 40 4
      vertex 372.2 0 4
      vertex 372.2 40 4
    endloop
  endfacet
  facet normal 0 0 1
    outer loop
      vertex 372.2 0 4
      vertex 198.6 40 4
      vertex 198.6 0 4
    endloop
  endfacet
  facet normal 0 0 -1
    outer loop
      vertex 352.539 0 0
      vertex 372.2 40 0
      vertex 372.2 0 0
    endloop
  endfacet
  facet normal -0 0 -1
    outer loop
      vertex 372.2 40 0
      vertex 352.539 0 0
      vertex 352.539 40 0
    endloop
  endfacet
  facet normal 0 0 -1
    outer loop
      vertex 198.6 0 0
      vertex 208.018 40 0
      vertex 208.018 0 0
    endloop
  endfacet
  facet normal -0 0 -1
    outer loop
      vertex 208.018 40 0
      vertex 198.6 0 0
      vertex 198.6 40 0
    endloop
  endfacet
  facet normal 0 0 -1
    outer loop
      vertex 209.018 0 0
      vertex 225.144 40 0
      vertex 225.144 0 0
    endloop
  endfacet
  facet normal -0 0 -1
    outer loop
      vertex 225.144 40 0
      vertex 209.018 0 0
      vertex 209.018 40 0
    endloop
  endfacet
  facet normal 0 0 -1
    outer loop
      vertex 243.289 0 0
      vertex 236.717 20 0
      vertex 243.289 40 0
    endloop
  endfacet
  facet normal 0 0 -1
    outer loop
      vertex 243.289 0 0
      vertex 235.985 18.2322 0
      vertex 236.717 20 0
    endloop
  endfacet
  facet normal 0 0 -1
    outer loop
      vertex 243.289 0 0
      vertex 234.217 17.5 0
      vertex 235.985 18.2322 0
    endloop
  endfacet
  facet normal 0 0 -1
    outer loop
      vertex 226.144 0 0
      vertex 234.217 17.5 0
      vertex 243.289 0 0
    endloop
  endfacet
  facet normal -0 0 -1
    outer loop
      vertex 232.449 18.2322 0
      vertex 226.144 0 0
      vertex 231.717 20 0
    endloop
  endfacet
  facet normal -0 0 -1
    outer loop
      vertex 234.217 17.5 0
      vertex 226.144 0 0
      vertex 232.449 18.2322 0
    endloop
  endfacet
  facet normal 0 0 -1
    outer loop
      vertex 235.985 21.7678 0
      vertex 243.289 40 0
      vertex 236.717 20 0
    endloop
  endfacet
  facet normal 0 0 -1
    outer loop
      vertex 234.217 22.5 0
      vertex 243.289 40 0
      vertex 235.985 21.7678 0
    endloop
  endfacet
  facet normal 0 0 -1
    outer loop
      vertex 226.144 40 0
      vertex 234.217 22.5 0
      vertex 232.449 21.7678 0
    endloop
  endfacet
  facet normal 0 0 -1
    outer loop
      vertex 234.217 22.5 0
      vertex 226.144 40 0
      vertex 243.289 40 0
    endloop
  endfacet
  facet normal 0 0 -1
    outer loop
      vertex 231.717 20 0
      vertex 226.144 40 0
      vertex 232.449 21.7678 0
    endloop
  endfacet
  facet normal 0 0 -1
    outer loop
      vertex 226.144 40 0
      vertex 231.717 20 0
      vertex 226.144 0 0
    endloop
  endfacet
  facet normal 0 0 -1
    outer loop
      vertex 244.289 0 0
      vertex 262.513 40 0
      vertex 262.513 0 0
    endloop
  endfacet
  facet normal -0 0 -1
    outer loop
      vertex 262.513 40 0
      vertex 244.289 0 0
      vertex 244.289 40 0
    endloop
  endfacet
  facet normal 0 0 -1
    outer loop
      vertex 282.88 0 0
      vertex 275.196 20 0
      vertex 282.88 40 0
    endloop
  endfacet
  facet normal 0 0 -1
    outer loop
      vertex 282.88 0 0
      vertex 274.464 18.2322 0
      vertex 275.196 20 0
    endloop
  endfacet
  facet normal 0 0 -1
    outer loop
      vertex 282.88 0 0
      vertex 272.696 17.5 0
      vertex 274.464 18.2322 0
    endloop
  endfacet
  facet normal 0 0 -1
    outer loop
      vertex 263.513 0 0
      vertex 272.696 17.5 0
      vertex 282.88 0 0
    endloop
  endfacet
  facet normal -0 0 -1
    outer loop
      vertex 270.929 18.2322 0
      vertex 263.513 0 0
      vertex 270.196 20 0
    endloop
  endfacet
  facet normal -0 0 -1
    outer loop
      vertex 272.696 17.5 0
      vertex 263.513 0 0
      vertex 270.929 18.2322 0
    endloop
  endfacet
  facet normal 0 0 -1
    outer loop
      vertex 274.464 21.7678 0
      vertex 282.88 40 0
      vertex 275.196 20 0
    endloop
  endfacet
  facet normal 0 0 -1
    outer loop
      vertex 272.696 22.5 0
      vertex 282.88 40 0
      vertex 274.464 21.7678 0
    endloop
  endfacet
  facet normal 0 0 -1
    outer loop
      vertex 263.513 40 0
      vertex 272.696 22.5 0
      vertex 270.929 21.7678 0
    endloop
  endfacet
  facet normal 0 0 -1
    outer loop
      vertex 272.696 22.5 0
      vertex 263.513 40 0
      vertex 282.88 40 0
    endloop
  endfacet
  facet normal 0 0 -1
    outer loop
      vertex 270.196 20 0
      vertex 263.513 40 0
      vertex 270.929 21.7678 0
    endloop
  endfacet
  facet normal 0 0 -1
    outer loop
      vertex 263.513 40 0
      vertex 270.196 20 0
      vertex 263.513 0 0
    endloop
  endfacet
  facet normal 0 0 -1
    outer loop
      vertex 283.88 0 0
      vertex 304.458 40 0
      vertex 304.458 0 0
    endloop
  endfacet
  facet normal -0 0 -1
    outer loop
      vertex 304.458 40 0
      vertex 283.88 0 0
      vertex 283.88 40 0
    endloop
  endfacet
  facet normal 0 0 -1
    outer loop
      vertex 327.319 0 0
      vertex 318.388 20 0
      vertex 327.319 40 0
    endloop
  endfacet
  facet normal 0 0 -1
    outer loop
      vertex 327.319 0 0
      vertex 317.656 18.2322 0
      vertex 318.388 20 0
    endloop
  endfacet
  facet normal 0 0 -1
    outer loop
      vertex 327.319 0 0
      vertex 315.888 17.5 0
      vertex 317.656 18.2322 0
    endloop
  endfacet
  facet normal 0 0 -1
    outer loop
      vertex 305.458 0 0
      vertex 315.888 17.5 0
      vertex 327.319 0 0
    endloop
  endfacet
  facet normal -0 0 -1
    outer loop
      vertex 314.121 18.2322 0
      vertex 305.458 0 0
      vertex 313.388 20 0
    endloop
  endfacet
  facet normal -0 0 -1
    outer loop
      vertex 315.888 17.5 0
      vertex 305.458 0 0
      vertex 314.121 18.2322 0
    endloop
  endfacet
  facet normal 0 0 -1
    outer loop
      vertex 317.656 21.7678 0
      vertex 327.319 40 0
      vertex 318.388 20 0
    endloop
  endfacet
  facet normal 0 0 -1
    outer loop
      vertex 315.888 22.5 0
      vertex 327.319 40 0
      vertex 317.656 21.7678 0
    endloop
  endfacet
  facet normal 0 0 -1
    outer loop
      vertex 305.458 40 0
      vertex 315.888 22.5 0
      vertex 314.121 21.7678 0
    endloop
  endfacet
  facet normal 0 0 -1
    outer loop
      vertex 315.888 22.5 0
      vertex 305.458 40 0
      vertex 327.319 40 0
    endloop
  endfacet
  facet normal 0 0 -1
    outer loop
      vertex 313.388 20 0
      vertex 305.458 40 0
      vertex 314.121 21.7678 0
    endloop
  endfacet
  facet normal 0 0 -1
    outer loop
      vertex 305.458 40 0
      vertex 313.388 20 0
      vertex 305.458 0 0
    endloop
  endfacet
  facet normal 0 0 -1
    outer loop
      vertex 328.319 0 0
      vertex 351.539 40 0
      vertex 351.539 0 0
    endloop
  endfacet
  facet normal -0 0 -1
    outer loop
      vertex 351.539 40 0
      vertex 328.319 0 0
      vertex 328.319 40 0
    endloop
  endfacet
  facet normal 0 1 -0
    outer loop
      vertex 225.144 40 0
      vertex 209.018 40 2
      vertex 225.144 40 2
    endloop
  endfacet
  facet normal 0 1 0
    outer loop
      vertex 209.018 40 2
      vertex 225.144 40 0
      vertex 209.018 40 0
    endloop
  endfacet
  facet normal 0 1 -0
    outer loop
      vertex 243.289 40 0
      vertex 226.144 40 2
      vertex 243.289 40 2
    endloop
  endfacet
  facet normal 0 1 0
    outer loop
      vertex 226.144 40 2
      vertex 243.289 40 0
      vertex 226.144 40 0
    endloop
  endfacet
  facet normal 0 1 -0
    outer loop
      vertex 262.513 40 0
      vertex 244.289 40 2
      vertex 262.513 40 2
    endloop
  endfacet
  facet normal 0 1 0
    outer loop
      vertex 244.289 40 2
      vertex 262.513 40 0
      vertex 244.289 40 0
    endloop
  endfacet
  facet normal 0 1 -0
    outer loop
      vertex 282.88 40 0
      vertex 263.513 40 2
      vertex 282.88 40 2
    endloop
  endfacet
  facet normal 0 1 0
    outer loop
      vertex 263.513 40 2
      vertex 282.88 40 0
      vertex 263.513 40 0
    endloop
  endfacet
  facet normal 0 1 -0
    outer loop
      vertex 304.458 40 0
      vertex 283.88 40 2
      vertex 304.458 40 2
    endloop
  endfacet
  facet normal 0 1 0
    outer loop
      vertex 283.88 40 2
      vertex 304.458 40 0
      vertex 283.88 40 0
    endloop
  endfacet
  facet normal 0 1 -0
    outer loop
      vertex 327.319 40 0
      vertex 305.458 40 2
      vertex 327.319 40 2
    endloop
  endfacet
  facet normal 0 1 0
    outer loop
      vertex 305.458 40 2
      vertex 327.319 40 0
      vertex 305.458 40 0
    endloop
  endfacet
  facet normal 0 1 -0
    outer loop
      vertex 351.539 40 0
      vertex 328.319 40 2
      vertex 351.539 40 2
    endloop
  endfacet
  facet normal 0 1 0
    outer loop
      vertex 328.319 40 2
      vertex 351.539 40 0
      vertex 328.319 40 0
    endloop
  endfacet
  facet normal 0 1 0
    outer loop
      vertex 351.539 40 2
      vertex 372.2 40 4
      vertex 352.539 40 2
    endloop
  endfacet
  facet normal 0 1 -0
    outer loop
      vertex 372.2 40 0
      vertex 352.539 40 2
      vertex 372.2 40 4
    endloop
  endfacet
  facet normal 0 1 0
    outer loop
      vertex 352.539 40 2
      vertex 372.2 40 0
      vertex 352.539 40 0
    endloop
  endfacet
  facet normal 0 1 0
    outer loop
      vertex 328.319 40 2
      vertex 372.2 40 4
      vertex 351.539 40 2
    endloop
  endfacet
  facet normal 0 1 0
    outer loop
      vertex 327.319 40 2
      vertex 372.2 40 4
      vertex 328.319 40 2
    endloop
  endfacet
  facet normal 0 1 0
    outer loop
      vertex 305.458 40 2
      vertex 372.2 40 4
      vertex 327.319 40 2
    endloop
  endfacet
  facet normal 0 1 0
    outer loop
      vertex 304.458 40 2
      vertex 372.2 40 4
      vertex 305.458 40 2
    endloop
  endfacet
  facet normal 0 1 0
    outer loop
      vertex 372.2 40 4
      vertex 304.458 40 2
      vertex 198.6 40 4
    endloop
  endfacet
  facet normal 0 1 -0
    outer loop
      vertex 283.88 40 2
      vertex 198.6 40 4
      vertex 304.458 40 2
    endloop
  endfacet
  facet normal 0 1 -0
    outer loop
      vertex 282.88 40 2
      vertex 198.6 40 4
      vertex 283.88 40 2
    endloop
  endfacet
  facet normal 0 1 -0
    outer loop
      vertex 263.513 40 2
      vertex 198.6 40 4
      vertex 282.88 40 2
    endloop
  endfacet
  facet normal 0 1 -0
    outer loop
      vertex 262.513 40 2
      vertex 198.6 40 4
      vertex 263.513 40 2
    endloop
  endfacet
  facet normal 0 1 -0
    outer loop
      vertex 244.289 40 2
      vertex 198.6 40 4
      vertex 262.513 40 2
    endloop
  endfacet
  facet normal 0 1 -0
    outer loop
      vertex 243.289 40 2
      vertex 198.6 40 4
      vertex 244.289 40 2
    endloop
  endfacet
  facet normal 0 1 -0
    outer loop
      vertex 226.144 40 2
      vertex 198.6 40 4
      vertex 243.289 40 2
    endloop
  endfacet
  facet normal 0 1 -0
    outer loop
      vertex 225.144 40 2
      vertex 198.6 40 4
      vertex 226.144 40 2
    endloop
  endfacet
  facet normal 0 1 -0
    outer loop
      vertex 209.018 40 2
      vertex 198.6 40 4
      vertex 225.144 40 2
    endloop
  endfacet
  facet normal 0 1 -0
    outer loop
      vertex 208.018 40 2
      vertex 198.6 40 4
      vertex 209.018 40 2
    endloop
  endfacet
  facet normal 0 1 0
    outer loop
      vertex 198.6 40 0
      vertex 208.018 40 2
      vertex 208.018 40 0
    endloop
  endfacet
  facet normal 0 1 0
    outer loop
      vertex 208.018 40 2
      vertex 198.6 40 0
      vertex 198.6 40 4
    endloop
  endfacet
  facet normal 0 -1 0
    outer loop
      vertex 328.319 0 0
      vertex 351.539 0 2
      vertex 328.319 0 2
    endloop
  endfacet
  facet normal 0 -1 -0
    outer loop
      vertex 351.539 0 2
      vertex 328.319 0 0
      vertex 351.539 0 0
    endloop
  endfacet
  facet normal 0 -1 0
    outer loop
      vertex 327.319 0 0
      vertex 316.588 0 2
      vertex 316.105 0 1.33426
    endloop
  endfacet
  facet normal 0 -1 0
    outer loop
      vertex 327.319 0 0
      vertex 316.105 0 1.33426
      vertex 305.458 0 0
    endloop
  endfacet
  facet normal 0 -1 0
    outer loop
      vertex 316.588 0 2
      vertex 327.319 0 0
      vertex 327.319 0 2
    endloop
  endfacet
  facet normal 0 -1 0
    outer loop
      vertex 283.88 0 0
      vertex 304.458 0 2
      vertex 283.88 0 2
    endloop
  endfacet
  facet normal 0 -1 -0
    outer loop
      vertex 304.458 0 2
      vertex 283.88 0 0
      vertex 304.458 0 0
    endloop
  endfacet
  facet normal 0 -1 0
    outer loop
      vertex 282.88 0 0
      vertex 273.396 0 2
      vertex 272.913 0 1.33426
    endloop
  endfacet
  facet normal 0 -1 0
    outer loop
      vertex 282.88 0 0
      vertex 272.913 0 1.33426
      vertex 263.513 0 0
    endloop
  endfacet
  facet normal 0 -1 0
    outer loop
      vertex 273.396 0 2
      vertex 282.88 0 0
      vertex 282.88 0 2
    endloop
  endfacet
  facet normal 0 -1 0
    outer loop
      vertex 244.289 0 0
      vertex 262.513 0 2
      vertex 244.289 0 2
    endloop
  endfacet
  facet normal 0 -1 -0
    outer loop
      vertex 262.513 0 2
      vertex 244.289 0 0
      vertex 262.513 0 0
    endloop
  endfacet
  facet normal 0 -1 0
    outer loop
      vertex 243.289 0 0
      vertex 234.917 0 2
      vertex 234.433 0 1.33426
    endloop
  endfacet
  facet normal 0 -1 0
    outer loop
      vertex 243.289 0 0
      vertex 234.433 0 1.33426
      vertex 226.144 0 0
    endloop
  endfacet
  facet normal 0 -1 0
    outer loop
      vertex 234.917 0 2
      vertex 243.289 0 0
      vertex 243.289 0 2
    endloop
  endfacet
  facet normal 0 -1 0
    outer loop
      vertex 209.018 0 0
      vertex 225.144 0 2
      vertex 209.018 0 2
    endloop
  endfacet
  facet normal 0 -1 -0
    outer loop
      vertex 225.144 0 2
      vertex 209.018 0 0
      vertex 225.144 0 0
    endloop
  endfacet
  facet normal 0 -1 0
    outer loop
      vertex 304.458 0 2
      vertex 316.105 0 2.66574
      vertex 272.913 0 2.66574
    endloop
  endfacet
  facet normal 0 -1 0
    outer loop
      vertex 282.88 0 2
      vertex 272.913 0 2.66574
      vertex 273.396 0 2
    endloop
  endfacet
  facet normal 0 -1 0
    outer loop
      vertex 283.88 0 2
      vertex 272.913 0 2.66574
      vertex 282.88 0 2
    endloop
  endfacet
  facet normal 0 -1 0
    outer loop
      vertex 304.458 0 2
      vertex 272.913 0 2.66574
      vertex 283.88 0 2
    endloop
  endfacet
  facet normal 0 -1 0
    outer loop
      vertex 305.458 0 2
      vertex 316.105 0 2.66574
      vertex 304.458 0 2
    endloop
  endfacet
  facet normal 0 -1 0
    outer loop
      vertex 316.105 0 2.66574
      vertex 305.458 0 2
      vertex 315.322 0 2.41145
    endloop
  endfacet
  facet normal 0 -1 0
    outer loop
      vertex 305.458 0 2
      vertex 315.322 0 1.58855
      vertex 315.322 0 2.41145
    endloop
  endfacet
  facet normal 0 -1 0
    outer loop
      vertex 305.458 0 0
      vertex 315.322 0 1.58855
      vertex 305.458 0 2
    endloop
  endfacet
  facet normal 0 -1 -0
    outer loop
      vertex 315.322 0 1.58855
      vertex 305.458 0 0
      vertex 316.105 0 1.33426
    endloop
  endfacet
  facet normal 0 -1 0
    outer loop
      vertex 262.513 0 2
      vertex 272.913 0 2.66574
      vertex 234.433 0 2.66574
    endloop
  endfacet
  facet normal 0 -1 0
    outer loop
      vertex 243.289 0 2
      vertex 234.433 0 2.66574
      vertex 234.917 0 2
    endloop
  endfacet
  facet normal 0 -1 0
    outer loop
      vertex 244.289 0 2
      vertex 234.433 0 2.66574
      vertex 243.289 0 2
    endloop
  endfacet
  facet normal 0 -1 0
    outer loop
      vertex 262.513 0 2
      vertex 234.433 0 2.66574
      vertex 244.289 0 2
    endloop
  endfacet
  facet normal 0 -1 0
    outer loop
      vertex 263.513 0 2
      vertex 272.913 0 2.66574
      vertex 262.513 0 2
    endloop
  endfacet
  facet normal 0 -1 0
    outer loop
      vertex 272.913 0 2.66574
      vertex 263.513 0 2
      vertex 272.13 0 2.41145
    endloop
  endfacet
  facet normal 0 -1 0
    outer loop
      vertex 263.513 0 2
      vertex 272.13 0 1.58855
      vertex 272.13 0 2.41145
    endloop
  endfacet
  facet normal 0 -1 0
    outer loop
      vertex 263.513 0 0
      vertex 272.13 0 1.58855
      vertex 263.513 0 2
    endloop
  endfacet
  facet normal 0 -1 -0
    outer loop
      vertex 272.13 0 1.58855
      vertex 263.513 0 0
      vertex 272.913 0 1.33426
    endloop
  endfacet
  facet normal 0 -1 0
    outer loop
      vertex 272.913 0 2.66574
      vertex 198.6 0 4
      vertex 234.433 0 2.66574
    endloop
  endfacet
  facet normal 0 -1 0
    outer loop
      vertex 225.144 0 2
      vertex 234.433 0 2.66574
      vertex 198.6 0 4
    endloop
  endfacet
  facet normal 0 -1 0
    outer loop
      vertex 209.018 0 2
      vertex 198.6 0 4
      vertex 208.018 0 2
    endloop
  endfacet
  facet normal 0 -1 0
    outer loop
      vertex 198.6 0 0
      vertex 208.018 0 2
      vertex 198.6 0 4
    endloop
  endfacet
  facet normal 0 -1 -0
    outer loop
      vertex 208.018 0 2
      vertex 198.6 0 0
      vertex 208.018 0 0
    endloop
  endfacet
  facet normal 0 -1 0
    outer loop
      vertex 198.6 0 4
      vertex 272.913 0 2.66574
      vertex 372.2 0 4
    endloop
  endfacet
  facet normal 0 -1 0
    outer loop
      vertex 316.105 0 2.66574
      vertex 372.2 0 4
      vertex 272.913 0 2.66574
    endloop
  endfacet
  facet normal 0 -1 0
    outer loop
      vertex 327.319 0 2
      vertex 316.105 0 2.66574
      vertex 316.588 0 2
    endloop
  endfacet
  facet normal 0 -1 0
    outer loop
      vertex 328.319 0 2
      vertex 316.105 0 2.66574
      vertex 327.319 0 2
    endloop
  endfacet
  facet normal 0 -1 0
    outer loop
      vertex 316.105 0 2.66574
      vertex 328.319 0 2
      vertex 372.2 0 4
    endloop
  endfacet
  facet normal 0 -1 0
    outer loop
      vertex 351.539 0 2
      vertex 372.2 0 4
      vertex 328.319 0 2
    endloop
  endfacet
  facet normal 0 -1 0
    outer loop
      vertex 352.539 0 2
      vertex 372.2 0 4
      vertex 351.539 0 2
    endloop
  endfacet
  facet normal 0 -1 0
    outer loop
      vertex 372.2 0 0
      vertex 352.539 0 2
      vertex 352.539 0 0
    endloop
  endfacet
  facet normal 0 -1 0
    outer loop
      vertex 352.539 0 2
      vertex 372.2 0 0
      vertex 372.2 0 4
    endloop
  endfacet
  facet normal 0 -1 0
    outer loop
      vertex 225.144 0 2
      vertex 198.6 0 4
      vertex 209.018 0 2
    endloop
  endfacet
  facet normal 0 -1 0
    outer loop
      vertex 226.144 0 2
      vertex 234.433 0 2.66574
      vertex 225.144 0 2
    endloop
  endfacet
  facet normal 0 -1 0
    outer loop
      vertex 234.433 0 2.66574
      vertex 226.144 0 2
      vertex 233.65 0 2.41145
    endloop
  endfacet
  facet normal 0 -1 0
    outer loop
      vertex 226.144 0 2
      vertex 233.65 0 1.58855
      vertex 233.65 0 2.41145
    endloop
  endfacet
  facet normal 0 -1 0
    outer loop
      vertex 226.144 0 0
      vertex 233.65 0 1.58855
      vertex 226.144 0 2
    endloop
  endfacet
  facet normal 0 -1 -0
    outer loop
      vertex 233.65 0 1.58855
      vertex 226.144 0 0
      vertex 234.433 0 1.33426
    endloop
  endfacet
  facet normal -1 0 0
    outer loop
      vertex 198.6 40 0
      vertex 198.6 34.7599 1.53647
      vertex 198.6 40 4
    endloop
  endfacet
  facet normal -1 0 0
    outer loop
      vertex 198.6 40 0
      vertex 198.6 33.3333 0.5
      vertex 198.6 34.7599 1.53647
    endloop
  endfacet
  facet normal -1 0 0
    outer loop
      vertex 198.6 33.3333 0.5
      vertex 198.6 8.09325 1.53647
      vertex 198.6 31.9067 1.53647
    endloop
  endfacet
  facet normal -1 0 0
    outer loop
      vertex 198.6 6.66667 0.5
      vertex 198.6 33.3333 0.5
      vertex 198.6 40 0
    endloop
  endfacet
  facet normal -1 0 0
    outer loop
      vertex 198.6 33.3333 0.5
      vertex 198.6 6.66667 0.5
      vertex 198.6 8.09325 1.53647
    endloop
  endfacet
  facet normal -1 -0 0
    outer loop
      vertex 198.6 6.66667 0.5
      vertex 198.6 0 0
      vertex 198.6 5.24008 1.53647
    endloop
  endfacet
  facet normal -1 0 0
    outer loop
      vertex 198.6 0 0
      vertex 198.6 6.66667 0.5
      vertex 198.6 40 0
    endloop
  endfacet
  facet normal -1 0 0
    outer loop
      vertex 198.6 34.215 3.21352
      vertex 198.6 40 4
      vertex 198.6 34.7599 1.53647
    endloop
  endfacet
  facet normal -1 0 0
    outer loop
      vertex 198.6 32.4517 3.21352
      vertex 198.6 40 4
      vertex 198.6 34.215 3.21352
    endloop
  endfacet
  facet normal -1 0 0
    outer loop
      vertex 198.6 8.09325 1.53647
      vertex 198.6 32.4517 3.21352
      vertex 198.6 31.9067 1.53647
    endloop
  endfacet
  facet normal -1 0 0
    outer loop
      vertex 198.6 7.54834 3.21352
      vertex 198.6 32.4517 3.21352
      vertex 198.6 8.09325 1.53647
    endloop
  endfacet
  facet normal -1 0 0
    outer loop
      vertex 198.6 32.4517 3.21352
      vertex 198.6 7.54834 3.21352
      vertex 198.6 40 4
    endloop
  endfacet
  facet normal -1 0 0
    outer loop
      vertex 198.6 0 4
      vertex 198.6 7.54834 3.21352
      vertex 198.6 5.78499 3.21352
    endloop
  endfacet
  facet normal -1 0 0
    outer loop
      vertex 198.6 0 4
      vertex 198.6 5.24008 1.53647
      vertex 198.6 0 0
    endloop
  endfacet
  facet normal -1 0 0
    outer loop
      vertex 198.6 7.54834 3.21352
      vertex 198.6 0 4
      vertex 198.6 40 4
    endloop
  endfacet
  facet normal -1 0 0
    outer loop
      vertex 198.6 5.24008 1.53647
      vertex 198.6 0 4
      vertex 198.6 5.78499 3.21352
    endloop
  endfacet
  facet normal -0.100614 -0.584802 0.804912
    outer loop
      vertex 202.6 6.66667 1
      vertex 198.6 8.09325 1.53647
      vertex 198.6 6.66667 0.5
    endloop
  endfacet
  facet normal -0.100614 0.94623 -0.307451
    outer loop
      vertex 198.6 5.78499 3.21352
      vertex 202.6 5.71561 1.69098
      vertex 198.6 5.24008 1.53647
    endloop
  endfacet
  facet normal -0.100614 -0.946231 -0.307446
    outer loop
      vertex 202.6 7.61772 1.69098
      vertex 202.6 7.25445 2.80902
      vertex 198.6 8.09325 1.53647
    endloop
  endfacet
  facet normal -0.100613 -0.94623 -0.307451
    outer loop
      vertex 198.6 8.09325 1.53647
      vertex 202.6 7.25445 2.80902
      vertex 198.6 7.54834 3.21352
    endloop
  endfacet
  facet normal -0.100614 0.584799 0.804914
    outer loop
      vertex 202.6 5.71561 1.69098
      vertex 198.6 6.66667 0.5
      vertex 198.6 5.24008 1.53647
    endloop
  endfacet
  facet normal -0.100614 0.584799 0.804914
    outer loop
      vertex 202.6 5.71561 1.69098
      vertex 202.6 6.66667 1
      vertex 198.6 6.66667 0.5
    endloop
  endfacet
  facet normal -0.100612 0 -0.994926
    outer loop
      vertex 198.6 5.78499 3.21352
      vertex 202.6 7.25445 2.80902
      vertex 202.6 6.07888 2.80902
    endloop
  endfacet
  facet normal -0.100612 0 -0.994926
    outer loop
      vertex 202.6 7.25445 2.80902
      vertex 198.6 5.78499 3.21352
      vertex 198.6 7.54834 3.21352
    endloop
  endfacet
  facet normal -0.100615 -0.584803 0.804911
    outer loop
      vertex 202.6 6.66667 1
      vertex 202.6 7.61772 1.69098
      vertex 198.6 8.09325 1.53647
    endloop
  endfacet
  facet normal -0.100613 0.946231 -0.307446
    outer loop
      vertex 202.6 6.07888 2.80902
      vertex 202.6 5.71561 1.69098
      vertex 198.6 5.78499 3.21352
    endloop
  endfacet
  facet normal -1 0 0
    outer loop
      vertex 202.6 6.66667 1
      vertex 202.6 7.25445 2.80902
      vertex 202.6 7.61772 1.69098
    endloop
  endfacet
  facet normal -1 0 0
    outer loop
      vertex 202.6 6.66667 1
      vertex 202.6 6.07888 2.80902
      vertex 202.6 7.25445 2.80902
    endloop
  endfacet
  facet normal -1 0 -0
    outer loop
      vertex 202.6 6.07888 2.80902
      vertex 202.6 6.66667 1
      vertex 202.6 5.71561 1.69098
    endloop
  endfacet
  facet normal -0.100614 0.584797 0.804916
    outer loop
      vertex 202.6 33.3333 1
      vertex 198.6 33.3333 0.5
      vertex 198.6 31.9067 1.53647
    endloop
  endfacet
  facet normal -0.100616 -0.584783 0.804925
    outer loop
      vertex 202.6 33.3333 1
      vertex 202.6 34.2844 1.69098
      vertex 198.6 33.3333 0.5
    endloop
  endfacet
  facet normal -0.10061 -0.584797 0.804916
    outer loop
      vertex 202.6 34.2844 1.69098
      vertex 198.6 34.7599 1.53647
      vertex 198.6 33.3333 0.5
    endloop
  endfacet
  facet normal -0.100617 -0.946224 -0.307469
    outer loop
      vertex 202.6 34.2844 1.69098
      vertex 202.6 33.9211 2.80902
      vertex 198.6 34.215 3.21352
    endloop
  endfacet
  facet normal -1 0 0
    outer loop
      vertex 202.6 33.3333 1
      vertex 202.6 33.9211 2.80902
      vertex 202.6 34.2844 1.69098
    endloop
  endfacet
  facet normal -1 0 0
    outer loop
      vertex 202.6 33.3333 1
      vertex 202.6 32.7455 2.80902
      vertex 202.6 33.9211 2.80902
    endloop
  endfacet
  facet normal -1 0 -0
    outer loop
      vertex 202.6 32.7455 2.80902
      vertex 202.6 33.3333 1
      vertex 202.6 32.3823 1.69098
    endloop
  endfacet
  facet normal -0.100607 -0.946232 -0.307446
    outer loop
      vertex 198.6 34.7599 1.53647
      vertex 202.6 34.2844 1.69098
      vertex 198.6 34.215 3.21352
    endloop
  endfacet
  facet normal -0.100595 0.946217 -0.307497
    outer loop
      vertex 198.6 32.4517 3.21352
      vertex 202.6 32.7455 2.80902
      vertex 198.6 31.9067 1.53647
    endloop
  endfacet
  facet normal -0.100612 0 -0.994926
    outer loop
      vertex 198.6 32.4517 3.21352
      vertex 202.6 33.9211 2.80902
      vertex 202.6 32.7455 2.80902
    endloop
  endfacet
  facet normal -0.100612 0 -0.994926
    outer loop
      vertex 202.6 33.9211 2.80902
      vertex 198.6 32.4517 3.21352
      vertex 198.6 34.215 3.21352
    endloop
  endfacet
  facet normal -0.100635 0.946247 -0.307392
    outer loop
      vertex 202.6 32.7455 2.80902
      vertex 202.6 32.3823 1.69098
      vertex 198.6 31.9067 1.53647
    endloop
  endfacet
  facet normal -0.100627 0.584823 0.804895
    outer loop
      vertex 202.6 32.3823 1.69098
      vertex 202.6 33.3333 1
      vertex 198.6 31.9067 1.53647
    endloop
  endfacet
endsolid OpenSCAD_Model
