solid OpenSCAD_Model
  facet normal 0 0 -1
    outer loop
      vertex -1 -20 -34
      vertex 1 -12.75 -34
      vertex 1 -20 -34
    endloop
  endfacet
  facet normal -0 0 -1
    outer loop
      vertex 1 -12.75 -34
      vertex -1 -20 -34
      vertex -1 -12.75 -34
    endloop
  endfacet
  facet normal 0 0 -1
    outer loop
      vertex -1 12.75 -34
      vertex 1 20 -34
      vertex 1 12.75 -34
    endloop
  endfacet
  facet normal -0 0 -1
    outer loop
      vertex 1 20 -34
      vertex -1 12.75 -34
      vertex -1 20 -34
    endloop
  endfacet
  facet normal 0 0 -1
    outer loop
      vertex -1 4.75 -34
      vertex 1 11.25 -34
      vertex 1 4.75 -34
    endloop
  endfacet
  facet normal -0 0 -1
    outer loop
      vertex 1 11.25 -34
      vertex -1 4.75 -34
      vertex -1 11.25 -34
    endloop
  endfacet
  facet normal 0 0 -1
    outer loop
      vertex -1 -3.25 -34
      vertex 1 3.25 -34
      vertex 1 -3.25 -34
    endloop
  endfacet
  facet normal -0 0 -1
    outer loop
      vertex 1 3.25 -34
      vertex -1 -3.25 -34
      vertex -1 3.25 -34
    endloop
  endfacet
  facet normal 0 0 -1
    outer loop
      vertex -1 -11.25 -34
      vertex 1 -4.75 -34
      vertex 1 -11.25 -34
    endloop
  endfacet
  facet normal -0 0 -1
    outer loop
      vertex 1 -4.75 -34
      vertex -1 -11.25 -34
      vertex -1 -4.75 -34
    endloop
  endfacet
  facet normal 0.993151 0 -0.116842
    outer loop
      vertex 3 17.1818 -17
      vertex 3 16.6667 -17
      vertex 2.18182 17.1818 -23.9545
    endloop
  endfacet
  facet normal 0.993151 0 -0.116842
    outer loop
      vertex 2.18182 19.1818 -23.9545
      vertex 3 26 -17
      vertex 3 19.1818 -17
    endloop
  endfacet
  facet normal 0.993151 -8.03277e-07 -0.116841
    outer loop
      vertex 3 26 -17
      vertex 2.18182 19.1818 -23.9545
      vertex 1 20 -34
    endloop
  endfacet
  facet normal 0.993151 0 -0.116841
    outer loop
      vertex 2.18182 17.1818 -23.9545
      vertex 1 20 -34
      vertex 2.18182 19.1818 -23.9545
    endloop
  endfacet
  facet normal 0.993151 5.46722e-07 -0.116841
    outer loop
      vertex 1.82353 12.5 -27
      vertex 1 20 -34
      vertex 2.18182 17.1818 -23.9545
    endloop
  endfacet
  facet normal 0.993151 1.14612e-06 -0.116842
    outer loop
      vertex 1.82353 12.5 -27
      vertex 2.18182 17.1818 -23.9545
      vertex 3 16.6667 -17
    endloop
  endfacet
  facet normal 0.993151 4.32981e-07 -0.116841
    outer loop
      vertex 1 20 -34
      vertex 1.82353 12.5 -27
      vertex 1.11765 12.375 -33
    endloop
  endfacet
  facet normal 0.99315 0 -0.116844
    outer loop
      vertex 1 20 -34
      vertex 1.11765 12.375 -33
      vertex 1 12.75 -34
    endloop
  endfacet
  facet normal 0.993151 0 -0.116841
    outer loop
      vertex 1.82353 12.5 -27
      vertex 1.11765 11.625 -33
      vertex 1.11765 12.375 -33
    endloop
  endfacet
  facet normal 0.993151 0 -0.116841
    outer loop
      vertex 1.82353 7.5 -27
      vertex 1.11765 11.625 -33
      vertex 1.82353 12.5 -27
    endloop
  endfacet
  facet normal 0.993151 0 -0.116841
    outer loop
      vertex 1.11765 4.375 -33
      vertex 1.11765 11.625 -33
      vertex 1.82353 7.5 -27
    endloop
  endfacet
  facet normal 0.99315 0 -0.116844
    outer loop
      vertex 1.11765 11.625 -33
      vertex 1.11765 4.375 -33
      vertex 1 11.25 -34
    endloop
  endfacet
  facet normal 0.99315 0 -0.116844
    outer loop
      vertex 1 11.25 -34
      vertex 1.11765 4.375 -33
      vertex 1 4.75 -34
    endloop
  endfacet
  facet normal 0.993151 0 -0.116841
    outer loop
      vertex 1.82353 7.5 -27
      vertex 1.11765 3.625 -33
      vertex 1.11765 4.375 -33
    endloop
  endfacet
  facet normal 0.993151 -7.47752e-07 -0.116841
    outer loop
      vertex 2.18182 1 -23.9545
      vertex 1.82353 7.5 -27
      vertex 3 3.33333 -17
    endloop
  endfacet
  facet normal 0.993151 -3.42902e-07 -0.116841
    outer loop
      vertex 1.82353 7.5 -27
      vertex 2.18182 1 -23.9545
      vertex 1.11765 3.625 -33
    endloop
  endfacet
  facet normal 0.993151 0 -0.116842
    outer loop
      vertex 2.18182 1 -23.9545
      vertex 3 3.33333 -17
      vertex 3 1 -17
    endloop
  endfacet
  facet normal 0.993151 0 -0.116841
    outer loop
      vertex 1.11765 -3.625 -33
      vertex 1.11765 3.625 -33
      vertex 2.18182 1 -23.9545
    endloop
  endfacet
  facet normal 0.993151 0 -0.116841
    outer loop
      vertex 1.11765 -3.625 -33
      vertex 2.18182 1 -23.9545
      vertex 2.18182 -1 -23.9545
    endloop
  endfacet
  facet normal 0.99315 0 -0.116844
    outer loop
      vertex 1.11765 3.625 -33
      vertex 1.11765 -3.625 -33
      vertex 1 3.25 -34
    endloop
  endfacet
  facet normal 0.993151 0 -0.116842
    outer loop
      vertex 3 -26 -17
      vertex 2.18182 -19.1818 -23.9545
      vertex 3 -19.1818 -17
    endloop
  endfacet
  facet normal 0.993151 8.03277e-07 -0.116841
    outer loop
      vertex 2.18182 -19.1818 -23.9545
      vertex 3 -26 -17
      vertex 1 -20 -34
    endloop
  endfacet
  facet normal 0.993151 0 -0.116842
    outer loop
      vertex 3 -3.33333 -17
      vertex 2.18182 -1 -23.9545
      vertex 3 -1 -17
    endloop
  endfacet
  facet normal 0.993151 7.47752e-07 -0.116841
    outer loop
      vertex 2.18182 -1 -23.9545
      vertex 3 -3.33333 -17
      vertex 1.82353 -7.5 -27
    endloop
  endfacet
  facet normal 0.99315 0 -0.116844
    outer loop
      vertex 1 3.25 -34
      vertex 1.11765 -3.625 -33
      vertex 1 -3.25 -34
    endloop
  endfacet
  facet normal 0.993151 3.42902e-07 -0.116841
    outer loop
      vertex 2.18182 -1 -23.9545
      vertex 1.82353 -7.5 -27
      vertex 1.11765 -3.625 -33
    endloop
  endfacet
  facet normal 0.993151 0 -0.116841
    outer loop
      vertex 1.11765 -3.625 -33
      vertex 1.82353 -7.5 -27
      vertex 1.11765 -4.375 -33
    endloop
  endfacet
  facet normal 0.993151 0 -0.116841
    outer loop
      vertex 1.11765 -11.625 -33
      vertex 1.11765 -4.375 -33
      vertex 1.82353 -7.5 -27
    endloop
  endfacet
  facet normal 0.99315 0 -0.116844
    outer loop
      vertex 1.11765 -4.375 -33
      vertex 1.11765 -11.625 -33
      vertex 1 -4.75 -34
    endloop
  endfacet
  facet normal 0.99315 0 -0.116844
    outer loop
      vertex 1 -4.75 -34
      vertex 1.11765 -11.625 -33
      vertex 1 -11.25 -34
    endloop
  endfacet
  facet normal 0.993151 0 -0.116841
    outer loop
      vertex 1.82353 -12.5 -27
      vertex 1.11765 -11.625 -33
      vertex 1.82353 -7.5 -27
    endloop
  endfacet
  facet normal 0.993151 0 -0.116841
    outer loop
      vertex 1.11765 -11.625 -33
      vertex 1.82353 -12.5 -27
      vertex 1.11765 -12.375 -33
    endloop
  endfacet
  facet normal 0.993151 -4.32981e-07 -0.116841
    outer loop
      vertex 1 -20 -34
      vertex 1.11765 -12.375 -33
      vertex 1.82353 -12.5 -27
    endloop
  endfacet
  facet normal 0.993151 -1.14612e-06 -0.116842
    outer loop
      vertex 2.18182 -17.1818 -23.9545
      vertex 1.82353 -12.5 -27
      vertex 3 -16.6667 -17
    endloop
  endfacet
  facet normal 0.993151 0 -0.116842
    outer loop
      vertex 2.18182 -17.1818 -23.9545
      vertex 3 -16.6667 -17
      vertex 3 -17.1818 -17
    endloop
  endfacet
  facet normal 0.993151 -5.46722e-07 -0.116841
    outer loop
      vertex 1 -20 -34
      vertex 1.82353 -12.5 -27
      vertex 2.18182 -17.1818 -23.9545
    endloop
  endfacet
  facet normal 0.993151 0 -0.116841
    outer loop
      vertex 1 -20 -34
      vertex 2.18182 -17.1818 -23.9545
      vertex 2.18182 -19.1818 -23.9545
    endloop
  endfacet
  facet normal 0.99315 0 -0.116844
    outer loop
      vertex 1.11765 -12.375 -33
      vertex 1 -20 -34
      vertex 1 -12.75 -34
    endloop
  endfacet
  facet normal -0 0 1
    outer loop
      vertex -7.5 -17.1818 -17
      vertex -3 -19.1818 -17
      vertex -3 -17.1818 -17
    endloop
  endfacet
  facet normal 0 0 1
    outer loop
      vertex -3 -19.1818 -17
      vertex -7.5 -17.1818 -17
      vertex -7.5 -19.1818 -17
    endloop
  endfacet
  facet normal 0 0 1
    outer loop
      vertex -3 -17.1818 -17
      vertex 3 -17.1818 -17
      vertex 3 -16.6667 -17
    endloop
  endfacet
  facet normal 0 0 1
    outer loop
      vertex 3 -17.1818 -17
      vertex -3 -17.1818 -17
      vertex 3 -19.1818 -17
    endloop
  endfacet
  facet normal 0 0 1
    outer loop
      vertex -3 -17.1818 -17
      vertex 3 -16.6667 -17
      vertex -3 -16.6667 -17
    endloop
  endfacet
  facet normal 0 0 1
    outer loop
      vertex 3 -19.1818 -17
      vertex -3 -17.1818 -17
      vertex -3 -19.1818 -17
    endloop
  endfacet
  facet normal 0 0 1
    outer loop
      vertex 3 -19.1818 -17
      vertex -3 -19.1818 -17
      vertex 3 -26 -17
    endloop
  endfacet
  facet normal 0 0 1
    outer loop
      vertex 3 -26 -17
      vertex -3 -19.1818 -17
      vertex -3 -26 -17
    endloop
  endfacet
  facet normal -0 0 1
    outer loop
      vertex 3 -17.1818 -17
      vertex 7.5 -19.1818 -17
      vertex 7.5 -17.1818 -17
    endloop
  endfacet
  facet normal 0 0 1
    outer loop
      vertex 7.5 -19.1818 -17
      vertex 3 -17.1818 -17
      vertex 3 -19.1818 -17
    endloop
  endfacet
  facet normal -0 0 1
    outer loop
      vertex -7.5 19.1818 -17
      vertex -3 17.1818 -17
      vertex -3 19.1818 -17
    endloop
  endfacet
  facet normal 0 0 1
    outer loop
      vertex -3 17.1818 -17
      vertex -7.5 19.1818 -17
      vertex -7.5 17.1818 -17
    endloop
  endfacet
  facet normal 0 0 1
    outer loop
      vertex -3 19.1818 -17
      vertex 3 19.1818 -17
      vertex 3 26 -17
    endloop
  endfacet
  facet normal 0 0 1
    outer loop
      vertex 3 19.1818 -17
      vertex -3 19.1818 -17
      vertex 3 17.1818 -17
    endloop
  endfacet
  facet normal 0 0 1
    outer loop
      vertex -3 19.1818 -17
      vertex 3 26 -17
      vertex -3 26 -17
    endloop
  endfacet
  facet normal 0 0 1
    outer loop
      vertex -3 17.1818 -17
      vertex 3 17.1818 -17
      vertex -3 19.1818 -17
    endloop
  endfacet
  facet normal 0 0 1
    outer loop
      vertex 3 17.1818 -17
      vertex -3 17.1818 -17
      vertex 3 16.6667 -17
    endloop
  endfacet
  facet normal 0 0 1
    outer loop
      vertex 3 16.6667 -17
      vertex -3 17.1818 -17
      vertex -3 16.6667 -17
    endloop
  endfacet
  facet normal -0 0 1
    outer loop
      vertex 3 19.1818 -17
      vertex 7.5 17.1818 -17
      vertex 7.5 19.1818 -17
    endloop
  endfacet
  facet normal 0 0 1
    outer loop
      vertex 7.5 17.1818 -17
      vertex 3 19.1818 -17
      vertex 3 17.1818 -17
    endloop
  endfacet
  facet normal -0 0 1
    outer loop
      vertex -7.5 1 -17
      vertex -3 -1 -17
      vertex -3 1 -17
    endloop
  endfacet
  facet normal 0 0 1
    outer loop
      vertex -3 -1 -17
      vertex -7.5 1 -17
      vertex -7.5 -1 -17
    endloop
  endfacet
  facet normal 0 0 1
    outer loop
      vertex -3 1 -17
      vertex 3 1 -17
      vertex 3 3.33333 -17
    endloop
  endfacet
  facet normal 0 0 1
    outer loop
      vertex 3 1 -17
      vertex -3 1 -17
      vertex 3 -1 -17
    endloop
  endfacet
  facet normal 0 0 1
    outer loop
      vertex -3 1 -17
      vertex 3 3.33333 -17
      vertex -3 3.33333 -17
    endloop
  endfacet
  facet normal 0 0 1
    outer loop
      vertex -3 -1 -17
      vertex 3 -1 -17
      vertex -3 1 -17
    endloop
  endfacet
  facet normal 0 0 1
    outer loop
      vertex 3 -1 -17
      vertex -3 -1 -17
      vertex 3 -3.33333 -17
    endloop
  endfacet
  facet normal 0 0 1
    outer loop
      vertex 3 -3.33333 -17
      vertex -3 -1 -17
      vertex -3 -3.33333 -17
    endloop
  endfacet
  facet normal -0 0 1
    outer loop
      vertex 3 1 -17
      vertex 7.5 -1 -17
      vertex 7.5 1 -17
    endloop
  endfacet
  facet normal 0 0 1
    outer loop
      vertex 7.5 -1 -17
      vertex 3 1 -17
      vertex 3 -1 -17
    endloop
  endfacet
  facet normal 0 -0.94299 -0.33282
    outer loop
      vertex -1 -20 -34
      vertex 3 -26 -17
      vertex -3 -26 -17
    endloop
  endfacet
  facet normal 0 -0.94299 -0.33282
    outer loop
      vertex 3 -26 -17
      vertex -1 -20 -34
      vertex 1 -20 -34
    endloop
  endfacet
  facet normal -0.993151 0 -0.116841
    outer loop
      vertex -1.11765 3.625 -33
      vertex -2.18182 -1 -23.9545
      vertex -2.18182 1 -23.9545
    endloop
  endfacet
  facet normal -0.99315 0 -0.116844
    outer loop
      vertex -1.11765 -3.625 -33
      vertex -1 3.25 -34
      vertex -1 -3.25 -34
    endloop
  endfacet
  facet normal -0.993151 -0 -0.116841
    outer loop
      vertex -1.11765 3.625 -33
      vertex -1.11765 -3.625 -33
      vertex -2.18182 -1 -23.9545
    endloop
  endfacet
  facet normal -0.993151 3.42902e-07 -0.116841
    outer loop
      vertex -1.82353 -7.5 -27
      vertex -2.18182 -1 -23.9545
      vertex -1.11765 -3.625 -33
    endloop
  endfacet
  facet normal -0.993151 7.47752e-07 -0.116841
    outer loop
      vertex -3 -3.33333 -17
      vertex -2.18182 -1 -23.9545
      vertex -1.82353 -7.5 -27
    endloop
  endfacet
  facet normal -0.993151 0 -0.116841
    outer loop
      vertex -1.82353 -7.5 -27
      vertex -1.11765 -3.625 -33
      vertex -1.11765 -4.375 -33
    endloop
  endfacet
  facet normal -0.99315 0 -0.116844
    outer loop
      vertex -1.11765 -11.625 -33
      vertex -1.11765 -4.375 -33
      vertex -1 -4.75 -34
    endloop
  endfacet
  facet normal -0.993151 0 -0.116842
    outer loop
      vertex -2.18182 -1 -23.9545
      vertex -3 -3.33333 -17
      vertex -3 -1 -17
    endloop
  endfacet
  facet normal -0.99315 0 -0.116844
    outer loop
      vertex -1.11765 -11.625 -33
      vertex -1 -4.75 -34
      vertex -1 -11.25 -34
    endloop
  endfacet
  facet normal -0.993151 -0 -0.116841
    outer loop
      vertex -1.11765 -4.375 -33
      vertex -1.11765 -11.625 -33
      vertex -1.82353 -7.5 -27
    endloop
  endfacet
  facet normal -0.993151 0 -0.116841
    outer loop
      vertex -1.82353 -12.5 -27
      vertex -1.11765 -11.625 -33
      vertex -1.11765 -12.375 -33
    endloop
  endfacet
  facet normal -0.993151 0 -0.116841
    outer loop
      vertex -1.11765 -11.625 -33
      vertex -1.82353 -12.5 -27
      vertex -1.82353 -7.5 -27
    endloop
  endfacet
  facet normal -0.99315 0 -0.116844
    outer loop
      vertex -1 -20 -34
      vertex -1.11765 -12.375 -33
      vertex -1 -12.75 -34
    endloop
  endfacet
  facet normal -0.993151 -4.32981e-07 -0.116841
    outer loop
      vertex -1.11765 -12.375 -33
      vertex -1 -20 -34
      vertex -1.82353 -12.5 -27
    endloop
  endfacet
  facet normal -0.993151 -1.14612e-06 -0.116842
    outer loop
      vertex -1.82353 -12.5 -27
      vertex -2.18182 -17.1818 -23.9545
      vertex -3 -16.6667 -17
    endloop
  endfacet
  facet normal -0.993151 -5.46722e-07 -0.116841
    outer loop
      vertex -1.82353 -12.5 -27
      vertex -1 -20 -34
      vertex -2.18182 -17.1818 -23.9545
    endloop
  endfacet
  facet normal -0.993151 -0 -0.116841
    outer loop
      vertex -2.18182 -17.1818 -23.9545
      vertex -1 -20 -34
      vertex -2.18182 -19.1818 -23.9545
    endloop
  endfacet
  facet normal -0.993151 8.03277e-07 -0.116841
    outer loop
      vertex -3 -26 -17
      vertex -2.18182 -19.1818 -23.9545
      vertex -1 -20 -34
    endloop
  endfacet
  facet normal -0.993151 0 -0.116842
    outer loop
      vertex -2.18182 -19.1818 -23.9545
      vertex -3 -26 -17
      vertex -3 -19.1818 -17
    endloop
  endfacet
  facet normal -0.993151 0 -0.116841
    outer loop
      vertex -1 20 -34
      vertex -2.18182 17.1818 -23.9545
      vertex -2.18182 19.1818 -23.9545
    endloop
  endfacet
  facet normal -0.993151 0 -0.116842
    outer loop
      vertex -2.18182 17.1818 -23.9545
      vertex -3 16.6667 -17
      vertex -3 17.1818 -17
    endloop
  endfacet
  facet normal -0.99315 0 -0.116844
    outer loop
      vertex -1.11765 12.375 -33
      vertex -1 20 -34
      vertex -1 12.75 -34
    endloop
  endfacet
  facet normal -0.993151 4.32981e-07 -0.116841
    outer loop
      vertex -1.82353 12.5 -27
      vertex -1 20 -34
      vertex -1.11765 12.375 -33
    endloop
  endfacet
  facet normal -0.993151 1.14612e-06 -0.116842
    outer loop
      vertex -2.18182 17.1818 -23.9545
      vertex -1.82353 12.5 -27
      vertex -3 16.6667 -17
    endloop
  endfacet
  facet normal -0.993151 5.46722e-07 -0.116841
    outer loop
      vertex -1 20 -34
      vertex -1.82353 12.5 -27
      vertex -2.18182 17.1818 -23.9545
    endloop
  endfacet
  facet normal -0.993151 0 -0.116841
    outer loop
      vertex -1.11765 11.625 -33
      vertex -1.82353 12.5 -27
      vertex -1.11765 12.375 -33
    endloop
  endfacet
  facet normal -0.99315 0 -0.116844
    outer loop
      vertex -1.11765 4.375 -33
      vertex -1.11765 11.625 -33
      vertex -1 11.25 -34
    endloop
  endfacet
  facet normal -0.993151 0 -0.116841
    outer loop
      vertex -1.11765 11.625 -33
      vertex -1.82353 7.5 -27
      vertex -1.82353 12.5 -27
    endloop
  endfacet
  facet normal -0.99315 0 -0.116844
    outer loop
      vertex -1.11765 4.375 -33
      vertex -1 11.25 -34
      vertex -1 4.75 -34
    endloop
  endfacet
  facet normal -0.993151 -0 -0.116841
    outer loop
      vertex -1.11765 11.625 -33
      vertex -1.11765 4.375 -33
      vertex -1.82353 7.5 -27
    endloop
  endfacet
  facet normal -0.993151 0 -0.116841
    outer loop
      vertex -1.11765 3.625 -33
      vertex -1.82353 7.5 -27
      vertex -1.11765 4.375 -33
    endloop
  endfacet
  facet normal -0.993151 -3.42902e-07 -0.116841
    outer loop
      vertex -2.18182 1 -23.9545
      vertex -1.82353 7.5 -27
      vertex -1.11765 3.625 -33
    endloop
  endfacet
  facet normal -0.99315 0 -0.116844
    outer loop
      vertex -1.11765 -3.625 -33
      vertex -1.11765 3.625 -33
      vertex -1 3.25 -34
    endloop
  endfacet
  facet normal -0.993151 -7.47752e-07 -0.116841
    outer loop
      vertex -1.82353 7.5 -27
      vertex -2.18182 1 -23.9545
      vertex -3 3.33333 -17
    endloop
  endfacet
  facet normal -0.993151 -0 -0.116842
    outer loop
      vertex -3 3.33333 -17
      vertex -2.18182 1 -23.9545
      vertex -3 1 -17
    endloop
  endfacet
  facet normal -0.993151 -8.03277e-07 -0.116841
    outer loop
      vertex -2.18182 19.1818 -23.9545
      vertex -3 26 -17
      vertex -1 20 -34
    endloop
  endfacet
  facet normal -0.993151 -0 -0.116842
    outer loop
      vertex -3 26 -17
      vertex -2.18182 19.1818 -23.9545
      vertex -3 19.1818 -17
    endloop
  endfacet
  facet normal -0.993151 -0 -0.116842
    outer loop
      vertex -3 -16.6667 -17
      vertex -2.18182 -17.1818 -23.9545
      vertex -3 -17.1818 -17
    endloop
  endfacet
  facet normal 0 0.94299 -0.33282
    outer loop
      vertex 1 20 -34
      vertex -3 26 -17
      vertex 3 26 -17
    endloop
  endfacet
  facet normal 0 0.94299 -0.33282
    outer loop
      vertex -3 26 -17
      vertex 1 20 -34
      vertex -1 20 -34
    endloop
  endfacet
  facet normal 0.794356 0 -0.607452
    outer loop
      vertex 7.5 -1 -17
      vertex 2.18182 1 -23.9545
      vertex 7.5 1 -17
    endloop
  endfacet
  facet normal 0.794356 0 -0.607452
    outer loop
      vertex 2.18182 1 -23.9545
      vertex 7.5 -1 -17
      vertex 2.18182 -1 -23.9545
    endloop
  endfacet
  facet normal -0.794356 0 -0.607452
    outer loop
      vertex -2.18182 -1 -23.9545
      vertex -7.5 1 -17
      vertex -2.18182 1 -23.9545
    endloop
  endfacet
  facet normal -0.794356 -0 -0.607452
    outer loop
      vertex -7.5 1 -17
      vertex -2.18182 -1 -23.9545
      vertex -7.5 -1 -17
    endloop
  endfacet
  facet normal 0 1 0
    outer loop
      vertex 7.5 1 -17
      vertex 2.18182 1 -23.9545
      vertex 3 1 -17
    endloop
  endfacet
  facet normal 0 1 0
    outer loop
      vertex -2.18182 1 -23.9545
      vertex -7.5 1 -17
      vertex -3 1 -17
    endloop
  endfacet
  facet normal 0 -1 -0
    outer loop
      vertex 3 -1 -17
      vertex 2.18182 -1 -23.9545
      vertex 7.5 -1 -17
    endloop
  endfacet
  facet normal -0 -1 -0
    outer loop
      vertex -3 -1 -17
      vertex -7.5 -1 -17
      vertex -2.18182 -1 -23.9545
    endloop
  endfacet
  facet normal 0.794356 0 -0.607452
    outer loop
      vertex 7.5 -19.1818 -17
      vertex 2.18182 -17.1818 -23.9545
      vertex 7.5 -17.1818 -17
    endloop
  endfacet
  facet normal 0.794356 0 -0.607452
    outer loop
      vertex 2.18182 -17.1818 -23.9545
      vertex 7.5 -19.1818 -17
      vertex 2.18182 -19.1818 -23.9545
    endloop
  endfacet
  facet normal -0.794356 0 -0.607452
    outer loop
      vertex -2.18182 -19.1818 -23.9545
      vertex -7.5 -17.1818 -17
      vertex -2.18182 -17.1818 -23.9545
    endloop
  endfacet
  facet normal -0.794356 -0 -0.607452
    outer loop
      vertex -7.5 -17.1818 -17
      vertex -2.18182 -19.1818 -23.9545
      vertex -7.5 -19.1818 -17
    endloop
  endfacet
  facet normal 0 1 0
    outer loop
      vertex 7.5 -17.1818 -17
      vertex 2.18182 -17.1818 -23.9545
      vertex 3 -17.1818 -17
    endloop
  endfacet
  facet normal 0 1 0
    outer loop
      vertex -2.18182 -17.1818 -23.9545
      vertex -7.5 -17.1818 -17
      vertex -3 -17.1818 -17
    endloop
  endfacet
  facet normal 0 -1 -0
    outer loop
      vertex 3 -19.1818 -17
      vertex 2.18182 -19.1818 -23.9545
      vertex 7.5 -19.1818 -17
    endloop
  endfacet
  facet normal -0 -1 -0
    outer loop
      vertex -3 -19.1818 -17
      vertex -7.5 -19.1818 -17
      vertex -2.18182 -19.1818 -23.9545
    endloop
  endfacet
  facet normal 0.794356 0 -0.607452
    outer loop
      vertex 7.5 17.1818 -17
      vertex 2.18182 19.1818 -23.9545
      vertex 7.5 19.1818 -17
    endloop
  endfacet
  facet normal 0.794356 0 -0.607452
    outer loop
      vertex 2.18182 19.1818 -23.9545
      vertex 7.5 17.1818 -17
      vertex 2.18182 17.1818 -23.9545
    endloop
  endfacet
  facet normal 0 1 0
    outer loop
      vertex 7.5 19.1818 -17
      vertex 2.18182 19.1818 -23.9545
      vertex 3 19.1818 -17
    endloop
  endfacet
  facet normal 0 1 0
    outer loop
      vertex -2.18182 19.1818 -23.9545
      vertex -7.5 19.1818 -17
      vertex -3 19.1818 -17
    endloop
  endfacet
  facet normal 0 -1 -0
    outer loop
      vertex 3 17.1818 -17
      vertex 2.18182 17.1818 -23.9545
      vertex 7.5 17.1818 -17
    endloop
  endfacet
  facet normal -0 -1 -0
    outer loop
      vertex -3 17.1818 -17
      vertex -7.5 17.1818 -17
      vertex -2.18182 17.1818 -23.9545
    endloop
  endfacet
  facet normal -0.794356 0 -0.607452
    outer loop
      vertex -2.18182 17.1818 -23.9545
      vertex -7.5 19.1818 -17
      vertex -2.18182 19.1818 -23.9545
    endloop
  endfacet
  facet normal -0.794356 -0 -0.607452
    outer loop
      vertex -7.5 19.1818 -17
      vertex -2.18182 17.1818 -23.9545
      vertex -7.5 17.1818 -17
    endloop
  endfacet
  facet normal 0 0 -1
    outer loop
      vertex -1.11765 11.625 -33
      vertex 1.11765 12.375 -33
      vertex 1.11765 11.625 -33
    endloop
  endfacet
  facet normal -0 0 -1
    outer loop
      vertex 1.11765 12.375 -33
      vertex -1.11765 11.625 -33
      vertex -1.11765 12.375 -33
    endloop
  endfacet
  facet normal 0 0.936329 -0.351123
    outer loop
      vertex 1 11.25 -34
      vertex -1.11765 11.625 -33
      vertex 1.11765 11.625 -33
    endloop
  endfacet
  facet normal 0 0.936329 -0.351123
    outer loop
      vertex -1.11765 11.625 -33
      vertex 1 11.25 -34
      vertex -1 11.25 -34
    endloop
  endfacet
  facet normal 0 -0.936329 -0.351123
    outer loop
      vertex -1 12.75 -34
      vertex 1.11765 12.375 -33
      vertex -1.11765 12.375 -33
    endloop
  endfacet
  facet normal 0 -0.936329 -0.351123
    outer loop
      vertex 1.11765 12.375 -33
      vertex -1 12.75 -34
      vertex 1 12.75 -34
    endloop
  endfacet
  facet normal 0 0.936329 -0.351123
    outer loop
      vertex 1 3.25 -34
      vertex -1.11765 3.625 -33
      vertex 1.11765 3.625 -33
    endloop
  endfacet
  facet normal 0 0.936329 -0.351123
    outer loop
      vertex -1.11765 3.625 -33
      vertex 1 3.25 -34
      vertex -1 3.25 -34
    endloop
  endfacet
  facet normal 0 -0.936329 -0.351123
    outer loop
      vertex -1 4.75 -34
      vertex 1.11765 4.375 -33
      vertex -1.11765 4.375 -33
    endloop
  endfacet
  facet normal 0 -0.936329 -0.351123
    outer loop
      vertex 1.11765 4.375 -33
      vertex -1 4.75 -34
      vertex 1 4.75 -34
    endloop
  endfacet
  facet normal 0 0 -1
    outer loop
      vertex -1.11765 3.625 -33
      vertex 1.11765 4.375 -33
      vertex 1.11765 3.625 -33
    endloop
  endfacet
  facet normal -0 0 -1
    outer loop
      vertex 1.11765 4.375 -33
      vertex -1.11765 3.625 -33
      vertex -1.11765 4.375 -33
    endloop
  endfacet
  facet normal 0 0.936329 -0.351123
    outer loop
      vertex 1 -4.75 -34
      vertex -1.11765 -4.375 -33
      vertex 1.11765 -4.375 -33
    endloop
  endfacet
  facet normal 0 0.936329 -0.351123
    outer loop
      vertex -1.11765 -4.375 -33
      vertex 1 -4.75 -34
      vertex -1 -4.75 -34
    endloop
  endfacet
  facet normal 0 -0.936329 -0.351123
    outer loop
      vertex -1 -3.25 -34
      vertex 1.11765 -3.625 -33
      vertex -1.11765 -3.625 -33
    endloop
  endfacet
  facet normal 0 -0.936329 -0.351123
    outer loop
      vertex 1.11765 -3.625 -33
      vertex -1 -3.25 -34
      vertex 1 -3.25 -34
    endloop
  endfacet
  facet normal 0 0 -1
    outer loop
      vertex -1.11765 -4.375 -33
      vertex 1.11765 -3.625 -33
      vertex 1.11765 -4.375 -33
    endloop
  endfacet
  facet normal -0 0 -1
    outer loop
      vertex 1.11765 -3.625 -33
      vertex -1.11765 -4.375 -33
      vertex -1.11765 -3.625 -33
    endloop
  endfacet
  facet normal 0 0 -1
    outer loop
      vertex -1.11765 -12.375 -33
      vertex 1.11765 -11.625 -33
      vertex 1.11765 -12.375 -33
    endloop
  endfacet
  facet normal -0 0 -1
    outer loop
      vertex 1.11765 -11.625 -33
      vertex -1.11765 -12.375 -33
      vertex -1.11765 -11.625 -33
    endloop
  endfacet
  facet normal 0 0.936329 -0.351123
    outer loop
      vertex 1 -12.75 -34
      vertex -1.11765 -12.375 -33
      vertex 1.11765 -12.375 -33
    endloop
  endfacet
  facet normal 0 0.936329 -0.351123
    outer loop
      vertex -1.11765 -12.375 -33
      vertex 1 -12.75 -34
      vertex -1 -12.75 -34
    endloop
  endfacet
  facet normal 0 -0.936329 -0.351123
    outer loop
      vertex -1 -11.25 -34
      vertex 1.11765 -11.625 -33
      vertex -1.11765 -11.625 -33
    endloop
  endfacet
  facet normal 0 -0.936329 -0.351123
    outer loop
      vertex 1.11765 -11.625 -33
      vertex -1 -11.25 -34
      vertex 1 -11.25 -34
    endloop
  endfacet
  facet normal 0 0.923076 0.384618
    outer loop
      vertex 1.82353 -12.5 -27
      vertex -3 -16.6667 -17
      vertex 3 -16.6667 -17
    endloop
  endfacet
  facet normal 0 0.923076 0.384618
    outer loop
      vertex -3 -16.6667 -17
      vertex 1.82353 -12.5 -27
      vertex -1.82353 -12.5 -27
    endloop
  endfacet
  facet normal -0 0 1
    outer loop
      vertex -1.82353 -7.5 -27
      vertex 1.82353 -12.5 -27
      vertex 1.82353 -7.5 -27
    endloop
  endfacet
  facet normal 0 0 1
    outer loop
      vertex 1.82353 -12.5 -27
      vertex -1.82353 -7.5 -27
      vertex -1.82353 -12.5 -27
    endloop
  endfacet
  facet normal 0 -0.923077 0.384616
    outer loop
      vertex -1.82353 -7.5 -27
      vertex 3 -3.33333 -17
      vertex -3 -3.33333 -17
    endloop
  endfacet
  facet normal 0 -0.923077 0.384616
    outer loop
      vertex 3 -3.33333 -17
      vertex -1.82353 -7.5 -27
      vertex 1.82353 -7.5 -27
    endloop
  endfacet
  facet normal 0 0.923077 0.384616
    outer loop
      vertex 1.82353 7.5 -27
      vertex -3 3.33333 -17
      vertex 3 3.33333 -17
    endloop
  endfacet
  facet normal 0 0.923077 0.384616
    outer loop
      vertex -3 3.33333 -17
      vertex 1.82353 7.5 -27
      vertex -1.82353 7.5 -27
    endloop
  endfacet
  facet normal -0 0 1
    outer loop
      vertex -1.82353 12.5 -27
      vertex 1.82353 7.5 -27
      vertex 1.82353 12.5 -27
    endloop
  endfacet
  facet normal 0 0 1
    outer loop
      vertex 1.82353 7.5 -27
      vertex -1.82353 12.5 -27
      vertex -1.82353 7.5 -27
    endloop
  endfacet
  facet normal 0 -0.923076 0.384618
    outer loop
      vertex -1.82353 12.5 -27
      vertex 3 16.6667 -17
      vertex -3 16.6667 -17
    endloop
  endfacet
  facet normal 0 -0.923076 0.384618
    outer loop
      vertex 3 16.6667 -17
      vertex -1.82353 12.5 -27
      vertex 1.82353 12.5 -27
    endloop
  endfacet
endsolid OpenSCAD_Model
